<svg id="Слой_1" xmlns="http://www.w3.org/2000/svg" xmlns:xlink="http://www.w3.org/1999/xlink" viewBox="0 0 163.4 83"><style>.st0{clip-path:url(#SVGID_2_);fill:url(#SVGID_3_);} .st1{clip-path:url(#SVGID_5_);fill:url(#SVGID_6_);} .st2{clip-path:url(#SVGID_8_);fill:url(#SVGID_9_);} .st3{clip-path:url(#SVGID_11_);fill:url(#SVGID_12_);} .st4{clip-path:url(#SVGID_14_);fill:url(#SVGID_15_);} .st5{clip-path:url(#SVGID_17_);fill:url(#SVGID_18_);} .st6{clip-path:url(#SVGID_20_);fill:url(#SVGID_21_);} .st7{fill:#FDCC53;} .st8{fill:#383736;} .st9{fill:#EF8127;}</style><g id="лого"><defs><path id="SVGID_1_" d="M138.1 7.4c10.4-3.3 17.9-1.8 18-1.7-1.5-2.6-2.6-4-3.3-4.8-.5-.6-.9-.8-.9-.9-7.3 1.5-13.8 7.4-13.8 7.4"/></defs><clipPath id="SVGID_2_"><use xlink:href="#SVGID_1_" overflow="visible"/></clipPath><linearGradient id="SVGID_3_" gradientUnits="userSpaceOnUse" x1="-441.072" y1="-927.323" x2="-440.564" y2="-927.323" gradientTransform="matrix(35.4596 0 0 -107.8226 15778.33 -99982.688)"><stop offset="0" stop-color="#EA5C36"/><stop offset=".501" stop-color="#EF7A30"/><stop offset="1" stop-color="#F49B2A"/></linearGradient><path class="st0" d="M138.1 0h18v7.4h-18z"/><defs><path id="SVGID_4_" d="M152.8.9c.7.8 1.8 2.2 3.3 4.8 1.3 1.4 2.1 2.4 3.3 4.6-1.7-5.1-4-7.8-7.5-10.2.2.1.5.3.9.8m-.9-.9z"/></defs><clipPath id="SVGID_5_"><use xlink:href="#SVGID_4_" overflow="visible"/></clipPath><linearGradient id="SVGID_6_" gradientUnits="userSpaceOnUse" x1="-429.522" y1="-935.779" x2="-429.013" y2="-935.779" gradientTransform="matrix(14.8073 0 0 -59.0532 6511.97 -55255.66)"><stop offset="0" stop-color="#EA5C36"/><stop offset=".501" stop-color="#EF7A30"/><stop offset="1" stop-color="#F49B2A"/></linearGradient><path class="st1" d="M151.9 0h7.5v10.2h-7.5z"/><defs><path id="SVGID_7_" d="M138.1 7.4c16.6-1.9 21.4 2.8 21.4 2.8-1.2-2.2-2-3.2-3.3-4.6-.1 0-1.9-.4-4.9-.4-3.3.1-7.9.5-13.2 2.2"/></defs><clipPath id="SVGID_8_"><use xlink:href="#SVGID_7_" overflow="visible"/></clipPath><linearGradient id="SVGID_9_" gradientUnits="userSpaceOnUse" x1="-442.459" y1="-926.241" x2="-441.95" y2="-926.241" gradientTransform="matrix(41.9802 0 0 -120.1032 18712.6 -111236.656)"><stop offset="0" stop-color="#A5A7A7"/><stop offset=".3" stop-color="#8B8D8C"/><stop offset="1" stop-color="#515352"/></linearGradient><path class="st2" d="M138.1 5.3h21.4v5h-21.4z"/><defs><path id="SVGID_10_" d="M94.4 33.3s12.4-11 22.2-15.6c0 0 14.5-7.9 21.9-2.6 4.3 3 4.2 9.4 2.9 14.9-1 4-2.4 7.8-4.2 11.3-5.1 9.9-17.5 25.7-43.3 36h.2c41.3-13.3 64.8-43.4 65.4-61.7v-1.3c0-.7-.1-1.3-.2-2-1.6-.9-6.6-3.3-16.8-3.3-26.4 0-48.1 24.3-48.1 24.3"/></defs><clipPath id="SVGID_11_"><use xlink:href="#SVGID_10_" overflow="visible"/></clipPath><linearGradient id="SVGID_12_" gradientUnits="userSpaceOnUse" x1="-450.242" y1="-919.195" x2="-449.734" y2="-919.195" gradientTransform="matrix(125.0085 -45.4994 -178.4746 -490.3545 -107666.977 -471165.125)"><stop offset="0" stop-color="#F08226"/><stop offset=".2" stop-color="#F08226"/><stop offset=".315" stop-color="#F28C28"/><stop offset=".51" stop-color="#F6A72C"/><stop offset=".6" stop-color="#F9B62E"/><stop offset=".68" stop-color="#F8B22E"/><stop offset=".767" stop-color="#F6A52C"/><stop offset=".856" stop-color="#F38F2B"/><stop offset=".946" stop-color="#EE7228"/><stop offset="1" stop-color="#EA5C26"/></linearGradient><path class="st3" d="M71.9 17l79.9-29.1 29.7 81.4-79.9 29z"/><defs><path id="SVGID_13_" d="M159.3 12.3c2.5 17.7-21.3 50.9-65.2 65h.4c19.4-4.7 49.7-21.5 64.3-45.2 1-1.7 2.4-1.6 2.6.3.4 3.3-1.3 9.9-1.3 10 2-4.8 3-9.3 3.3-13.5v-4.2c-.3-5-1.8-9.2-4.1-12.4z"/></defs><clipPath id="SVGID_14_"><use xlink:href="#SVGID_13_" overflow="visible"/></clipPath><linearGradient id="SVGID_15_" gradientUnits="userSpaceOnUse" x1="-447.402" y1="-919.224" x2="-446.893" y2="-919.224" gradientTransform="matrix(138.5926 0 0 -492.2567 62099.566 -452449.25)"><stop offset="0" stop-color="#EA5C36"/><stop offset=".346" stop-color="#EC692C"/><stop offset=".5" stop-color="#ED7027"/><stop offset=".647" stop-color="#EE7527"/><stop offset=".811" stop-color="#F08228"/><stop offset=".983" stop-color="#F4982A"/><stop offset="1" stop-color="#F49B2A"/></linearGradient><path class="st4" d="M94.1 12.3h69.3v65H94.1z"/><g><defs><path id="SVGID_16_" d="M158.8 32c-1.2 1.9-2.5 3.8-3.8 5.6 1.3-.7 5.2-2.2 5.2 4.6 0-.2.1-.4.1-.6.3-1.5 1.1-5.3 1.2-8v-.5-.8c-.1-1-.5-1.5-1.1-1.5-.5 0-1.1.4-1.6 1.2"/></defs><clipPath id="SVGID_17_"><use xlink:href="#SVGID_16_" overflow="visible"/></clipPath><linearGradient id="SVGID_18_" gradientUnits="userSpaceOnUse" x1="-398.835" y1="-932.428" x2="-398.326" y2="-932.428" gradientTransform="matrix(11.9297 4.342 20.2193 -55.5513 23766.658 -50030.16)"><stop offset="0" stop-color="#919392"/><stop offset=".24" stop-color="#777978"/><stop offset=".501" stop-color="#626463"/><stop offset=".757" stop-color="#555756"/><stop offset="1" stop-color="#515352"/></linearGradient><path class="st5" d="M155.7 28.7l9.5 3.5-4.5 12.2-9.4-3.5z"/></g><g><defs><path id="SVGID_19_" d="M116.6 17.8c-9.8 4.6-21.8 15.2-22.2 15.6C112.7 23 129 20 134.2 28c3.8 5.8-.7 30.9-40.4 49.3h.1c18.9-7.5 30.6-18 37.5-27 1.1-1.5 2.2-3.1 3.3-4.7 1.9-3.4 3.3-6.7 4.4-9.7.6-1.8 1.2-3.6 1.7-5.5 1.3-5.4 1.3-11.7-2.9-14.8-1.8-1.2-4.1-1.6-6.4-1.6-7 0-14.9 3.7-14.9 3.8"/></defs><clipPath id="SVGID_20_"><use xlink:href="#SVGID_19_" overflow="visible"/></clipPath><linearGradient id="SVGID_21_" gradientUnits="userSpaceOnUse" x1="-463.229" y1="-916.38" x2="-462.721" y2="-916.38" gradientTransform="matrix(-40.7226 -70.5338 -310.7127 179.39 -303469.688 131774.484)"><stop offset="0" stop-color="#515352"/><stop offset=".086" stop-color="#555756"/><stop offset=".173" stop-color="#616362"/><stop offset=".261" stop-color="#757776"/><stop offset=".348" stop-color="#919392"/><stop offset=".4" stop-color="#A5A7A7"/><stop offset=".423" stop-color="#909293"/><stop offset=".474" stop-color="#696B6C"/><stop offset=".527" stop-color="#494B4D"/><stop offset=".581" stop-color="#303234"/><stop offset=".638" stop-color="#1E2023"/><stop offset=".698" stop-color="#131518"/><stop offset=".767" stop-color="#101215"/><stop offset=".808" stop-color="#090A0B"/><stop offset=".875" stop-color="#030303"/><stop offset="1" stop-color="#010101"/><stop offset="1" stop-color="#010101"/></linearGradient><path class="st6" d="M105.9 98.2L66.3 29.8 130.1-7l39.5 68.4z"/></g><path class="st7" d="M141.5 30c1.3-5.4 1.4-11.8-2.9-14.8-7.5-5.3-21.9 2.6-21.9 2.6s14.2-6.8 21.3-2.2c4.3 3.1 4.2 9.4 2.9 14.8-.4 1.9-1 3.7-1.7 5.5-1.1 2.9-2.5 6.2-4.4 9.7-.1.2-.3.4-.4.6 1.1-1.7 2.1-3.4 2.9-4.9 1.8-3.6 3.2-7.3 4.2-11.3"/><path class="st8" d="M6 64.4c0 .2-.1.4-.2.6-.1.2-.4.3-.7.3H.8c-.4 0-.6-.1-.7-.2-.1-.3-.1-.5-.1-.7l4.2-23.7c0-.2.1-.4.3-.6.1-.2.4-.2.8-.2h8.4c1.1 0 2.2.1 3.1.4 1 .3 1.8.7 2.5 1.3.7.6 1.3 1.3 1.7 2.1.4.9.6 1.9.7 3 0 1.1-.1 2.3-.5 3.4s-1 2.1-1.8 2.9c-.8.9-1.9 1.5-3.2 2.1-1.3.5-2.9.8-4.7.8h-4L6 64.4zm2.4-13.5h2.9c.5 0 1-.1 1.4-.2.4-.2.8-.4 1.2-.7.3-.3.6-.7.8-1.1.2-.4.3-1 .3-1.6 0-.8-.3-1.4-.8-1.7-.5-.3-1.2-.5-2.1-.5H9.4l-1 5.8zM32.1 60.2c2.7 0 4.3-1.5 4.8-4.5l2.6-14.9c0-.3.1-.5.3-.6.2-.2.4-.2.7-.2h4.6c.4 0 .6.1.7.3.1.2.1.4 0 .6l-2.7 15c-.3 1.5-.7 2.9-1.3 4.1-.6 1.2-1.3 2.2-2.3 3.1-.9.9-2.1 1.5-3.4 1.9-1.3.4-2.9.7-4.6.7-1.7 0-3.2-.2-4.5-.7-1.3-.5-2.3-1.1-3.1-2-.8-.9-1.3-1.9-1.6-3.1-.3-1.2-.3-2.5 0-4l2.7-15c0-.3.1-.5.3-.6.1-.2.4-.2.8-.2H31c.4 0 .6.1.6.3.1.2.1.4 0 .6L29 55.6c-.6 3.1.5 4.6 3.1 4.6M51.9 60h10.3c.4 0 .6.2.6.6l-.7 3.8c0 .2-.1.4-.3.6-.1.1-.4.2-.7.2H45.5c-.6 0-.9-.3-.7-.8L49 40.8c0-.3.1-.5.3-.6.2-.2.4-.2.7-.2h4.7c.6 0 .8.3.7.9L51.9 60zM73.5 65.5c-.4 0-1 0-1.6-.1-.7 0-1.4-.1-2.1-.2-.7-.1-1.5-.2-2.2-.4-.7-.2-1.4-.3-2-.6-.6-.3-.9-.5-1-.7 0-.2 0-.5.1-.9l.9-2.3c.2-.5.4-.8.6-.9.2-.1.6-.1 1.1 0 1 .2 2.1.3 3.3.4 1.2.1 2.4.2 3.5.2 1.3 0 2.4-.2 3.2-.6.8-.4 1.2-1.1 1.2-2 0-.6-.2-1.1-.7-1.4-.5-.3-1.3-.6-2.4-.9-1.3-.4-2.4-.7-3.4-1.1-1-.4-1.9-.8-2.6-1.4-.7-.5-1.3-1.2-1.7-1.9-.4-.8-.6-1.7-.6-2.9 0-1.5.2-2.7.8-3.8.6-1.1 1.4-1.9 2.4-2.6 1-.7 2.2-1.2 3.5-1.5 1.3-.3 2.8-.5 4.2-.5h1.5c.6 0 1.3.1 1.9.1l2.1.3c.7.2 1.4.4 2 .6.6.3.9.5 1 .7 0 .2 0 .5-.2.9l-.9 2.3c-.1.3-.2.5-.3.6-.1.1-.2.2-.4.2h-.5c-.2 0-.4 0-.7-.1-.9-.1-1.7-.2-2.7-.3-.9-.1-2-.1-3.2-.1-.5 0-.9 0-1.4.1-.5.1-.9.2-1.2.3-.4.2-.6.4-.9.7-.2.3-.3.7-.3 1.2 0 .6.3 1 .7 1.2.5.3 1.2.5 2.3.7 1 .2 1.9.5 2.9.8 1 .3 1.9.7 2.7 1.3.8.5 1.5 1.2 2 2s.8 1.9.8 3.1c0 1.7-.2 3.1-.9 4.2-.6 1.1-1.5 2.1-2.6 2.8-1.1.7-2.4 1.2-3.9 1.5-1.1.9-2.7 1-4.3 1M90.8 40.7c0-.3.1-.5.3-.6.2-.2.4-.2.7-.2h15.4c.6 0 .8.3.7.8l-.6 3.6c0 .2-.1.4-.3.6-.1.1-.4.2-.7.2h-9.9l-.8 4.9h9.8c.6 0 .8.3.7.8l-.6 3.5c0 .2-.1.4-.3.6-.1.1-.4.2-.7.2h-9.8l-.8 4.9h9.8c.5 0 .8.3.7.8l-.6 3.6c0 .2-.1.4-.3.6-.1.1-.4.2-.7.2H87.4c-.3 0-.6-.1-.7-.2-.1-.2-.1-.4-.1-.6l4.2-23.7z"/><path class="st9" d="M33.4 77.1l2.3 5.3v.3c0 .1-.1.2-.3.2h-2.1c-.2 0-.3 0-.4-.1-.1 0-.2-.1-.2-.3l-.5-1.5-.6-1.8-1.1 1.8-1 1.5c-.1.2-.2.3-.3.3-.1.1-.2.1-.4.1h-2.4c-.2 0-.2 0-.3-.2 0-.1 0-.2.1-.3l4.1-5.3-2.1-5c-.1-.1-.1-.3 0-.4.1-.1.2-.1.3-.1h2.1c.2 0 .3 0 .4.1.1.1.1.2.2.3l.5 1.5.5 1.5 1.1-1.6.9-1.4.3-.3c.1-.1.2-.1.4-.1H37.6c.1 0 .1.1.1.1v.1c0 .1-.1.1-.1.1l-4.2 5.2zM39.4 82.4c0 .1-.1.2-.1.2 0 .1-.2.1-.3.1h-2.1c-.2 0-.3 0-.3-.1s-.1-.2 0-.3l1.9-10.5c0-.1.1-.2.1-.3.1-.1.2-.1.3-.1h3.9c.5 0 1 .1 1.4.2.4.1.8.3 1.1.6.3.3.6.6.7.9.2.4.3.8.3 1.3s-.1 1-.2 1.5c-.2.5-.4.9-.8 1.3s-.8.7-1.4.9c-.6.2-1.3.4-2.1.4h-1.7l-.7 3.9zm1-5.9h1.3c.2 0 .4 0 .6-.1.2-.1.4-.2.5-.3.2-.1.3-.3.4-.5.1-.2.1-.4.1-.7 0-.4-.1-.6-.4-.8-.2-.2-.5-.2-.9-.2h-1.2l-.4 2.6zM54.5 82.4c.1.3 0 .4-.3.4h-1.9c-.2 0-.3 0-.4-.1-.1-.1-.2-.1-.2-.3-.1-.3-.2-.7-.3-1.1l-.3-1.2c-.1-.4-.2-.7-.3-1-.1-.3-.1-.5-.1-.5h-1.3l-.7 3.9c0 .1 0 .2-.1.2-.1.1-.2.1-.3.1H46c-.2 0-.3 0-.3-.1s-.1-.2 0-.3l1.9-10.5c0-.1.1-.2.1-.3.1-.1.2-.1.3-.1h4.3c.4 0 .9.1 1.3.2s.7.3 1 .5c.3.2.5.5.7.9.2.4.3.8.3 1.3 0 .8-.2 1.5-.6 2.1-.4.6-1 1.1-1.9 1.5l1.4 4.4zM50 73.8l-.4 2.5H51c.2 0 .4 0 .6-.1.2-.1.4-.1.5-.3.2-.1.3-.3.4-.5.1-.2.1-.4.1-.7 0-.3-.1-.6-.4-.7-.2-.1-.5-.2-.9-.2H50zM68.3 83h-.7c-.3 0-.6 0-.9-.1-.3 0-.7-.1-1-.2l-.9-.3c-.3-.1-.4-.2-.4-.3 0-.1 0-.2.1-.4l.4-1c.1-.2.2-.4.3-.4h.5c.4.1.9.1 1.5.2.5 0 1.1.1 1.6.1.6 0 1.1-.1 1.4-.3.4-.2.5-.5.5-.9 0-.3-.1-.5-.3-.6-.2-.1-.6-.3-1.1-.4-.6-.2-1.1-.3-1.5-.5l-1.2-.6c-.3-.2-.6-.5-.7-.9-.2-.3-.3-.8-.3-1.3 0-.7.1-1.2.4-1.7.3-.5.6-.9 1.1-1.2.4-.3 1-.5 1.6-.7.6-.1 1.2-.2 1.9-.2h.6c.3 0 .6 0 .9.1.3 0 .6.1.9.2l.9.3c.3.1.4.2.4.3 0 .1 0 .2-.1.4l-.4 1c-.1.1-.1.2-.1.3 0 .1-.1.1-.2.1H73c-.4-.1-.8-.1-1.2-.1-.4 0-.9-.1-1.4-.1h-.6c-.2 0-.4.1-.5.2-.2.1-.3.2-.4.3-.1.1-.1.3-.1.6 0 .2.1.4.3.5.2.1.5.2 1 .3.4.1.9.2 1.3.3.4.1.8.3 1.2.6.4.2.6.5.9.9.2.4.4.8.4 1.4 0 .7-.1 1.4-.4 1.9-.3.5-.6.9-1.1 1.2-.5.3-1.1.5-1.7.7-.9.2-1.6.3-2.4.3M77.6 83h-.7c-.3 0-.6 0-.9-.1-.3 0-.7-.1-1-.2l-.9-.3c-.3-.1-.4-.2-.4-.3 0-.1 0-.2.1-.4l.4-1c.1-.2.2-.4.3-.4h.5c.4.1.9.1 1.5.2.5 0 1.1.1 1.6.1.6 0 1.1-.1 1.4-.3.4-.2.5-.5.5-.9 0-.3-.1-.5-.3-.6-.2-.1-.6-.3-1.1-.4-.6-.2-1.1-.3-1.5-.5l-1.2-.6c-.3-.2-.6-.5-.7-.9-.2-.3-.3-.8-.3-1.3 0-.7.1-1.2.4-1.7.3-.5.6-.9 1.1-1.2.4-.3 1-.5 1.6-.7.6-.1 1.2-.2 1.9-.2h.6c.3 0 .6 0 .9.1.3 0 .6.1.9.2l.9.3c.3.1.4.2.4.3 0 .1 0 .2-.1.4l-.4 1c-.1.1-.1.2-.1.3 0 .1-.1.1-.2.1h-.5c-.4-.1-.8-.1-1.2-.1-.4 0-.9-.1-1.4-.1h-.6c-.2 0-.4.1-.5.2-.2.1-.3.2-.4.3-.1.1-.1.3-.1.6 0 .2.1.4.3.5.2.1.5.2 1 .3.4.1.9.2 1.3.3.4.1.8.3 1.2.6.4.2.6.5.9.9.2.4.4.8.4 1.4 0 .7-.1 1.4-.4 1.9-.3.5-.7.9-1.1 1.2-.5.3-1.1.5-1.7.7-1 .2-1.7.3-2.4.3M19.4 71.9c0-.1.1-.2.1-.3.1-.1.2-.1.3-.1H27c.2 0 .3.1.3.4l-.3 1.6c0 .1-.1.2-.1.3-.1.1-.2.1-.3.1h-4.7l-.4 2.1h4.2c.3 0 .4.1.3.4l-.2 1.6c0 .1-.1.2-.1.2-.1.1-.2.1-.3.1h-4.2l-.4 2.2h4.7c.2 0 .3.1.3.4l-.3 1.6c0 .1-.1.2-.1.2-.1.1-.2.1-.3.1H18c-.2 0-.3 0-.3-.1s-.1-.2 0-.3l1.7-10.5zM57.3 71.9c0-.1.1-.2.1-.3.1-.1.2-.1.3-.1H65c.2 0 .3.1.3.4l-.3 1.6c0 .1-.1.2-.1.3-.1.1-.2.1-.3.1h-4.7l-.5 2.1h4.2c.3 0 .4.1.3.4l-.2 1.6c0 .1-.1.2-.1.2-.1.1-.2.1-.3.1H59l-.4 2.2h4.7c.2 0 .3.1.3.4l-.3 1.6c0 .1-.1.2-.1.2-.1.1-.2.1-.3.1h-7.1c-.2 0-.3 0-.3-.1s-.1-.2 0-.3l1.8-10.5z"/></g></svg>